<?xml version="1.0" encoding="utf-8"?>
<!-- Generator: Adobe Illustrator 16.0.0, SVG Export Plug-In . SVG Version: 6.00 Build 0)  -->
<!DOCTYPE svg PUBLIC "-//W3C//DTD SVG 1.1//EN" "http://www.w3.org/Graphics/SVG/1.1/DTD/svg11.dtd">
<svg version="1.1" id="Layer_1" xmlns="http://www.w3.org/2000/svg" xmlns:xlink="http://www.w3.org/1999/xlink" x="0px" y="0px"
	 width="58.847px" height="100.001px" viewBox="0 0 58.847 100.001" enable-background="new 0 0 58.847 100.001"
	 xml:space="preserve">
<g>
	<path fill="#FFFFFF" d="M50.354,97.432L3.194,21.958c0,0-3.813-13.368-1.392-19.831l54.893,88.117
		C56.694,90.244,57.748,99.676,50.354,97.432z"/>
	<g>
		<path fill="#CD2813" d="M0.438,1.959c-0.352,2.751-0.48,5.504-0.425,8.297c0.02,1.403,0.117,2.767,0.274,4.165
			c0.098,1.412,0.344,3.223,1.331,6.24c0.57,1.8,2.742,5.646,2.742,5.646L50.385,99.17c0,0,2.312,1.873,4.956-0.006
			c1.885-1.207,2.773-2.586,3.254-4.098c0.884-2.751-0.841-6.189-0.841-6.189S12.436,17.226,12.357,17.133L1.701,1.641L0.549,0
			L0.438,1.959z M9.612,18.089C9.643,18.212,55.101,90.04,55.101,90.04s0.962,1.78-0.215,3.572c-1.3,1.993-2.416,2.466-2.978,2.645
			L6.56,25.148c0,0-1.778-2.614-2.865-5.259c-1.845-3.891-1.865-8.353-1.904-9.7c-0.131-1.94-0.179-3.914-0.125-5.82L9.612,18.089z"
			/>
	</g>
	<path fill="#CD2813" d="M2.858,7.679c0,0-0.005,0.411,0.081,1.118c0.02,0.35,0.098,0.777,0.199,1.264
		c0.117,0.481,0.142,1.04,0.33,1.627c0.296,1.177,0.654,2.549,1.23,3.967c0.285,0.707,0.487,1.468,0.858,2.178
		c0.333,0.721,0.674,1.465,1.009,2.2c0.601,1.51,1.509,2.871,2.225,4.219c0.705,1.353,1.499,2.53,2.192,3.533
		c1.336,2.043,2.225,3.405,2.225,3.405l-0.576,0.425c0,0-0.934-1.353-2.342-3.377c-0.696-1.018-1.493-2.214-2.2-3.587
		c-0.719-1.367-1.63-2.748-2.236-4.285c-0.33-0.755-0.66-1.51-0.981-2.256c-0.347-0.735-0.52-1.526-0.774-2.25
		c-0.517-1.459-0.813-2.871-1.065-4.082c-0.157-0.598-0.173-1.174-0.235-1.674c-0.056-0.495-0.095-0.937-0.086-1.3
		C2.688,8.082,2.73,7.676,2.73,7.676L2.858,7.679z"/>
</g>
<g>
</g>
<g>
</g>
<g>
</g>
<g>
</g>
<g>
</g>
<g>
</g>
</svg>
