<?xml version="1.0" encoding="utf-8"?>
<!-- Generator: Adobe Illustrator 16.0.0, SVG Export Plug-In . SVG Version: 6.00 Build 0)  -->
<!DOCTYPE svg PUBLIC "-//W3C//DTD SVG 1.1//EN" "http://www.w3.org/Graphics/SVG/1.1/DTD/svg11.dtd">
<svg version="1.1" id="Layer_1" xmlns="http://www.w3.org/2000/svg" xmlns:xlink="http://www.w3.org/1999/xlink" x="0px" y="0px"
	 width="49.676px" height="100.001px" viewBox="0 0 49.676 100.001" enable-background="new 0 0 49.676 100.001"
	 xml:space="preserve">
<g>
	<path fill="#CD2813" d="M1.923,0C1.51,1.397,0.771,2.792,0.747,4.202C0.699,7.201,1.22,10.15,0.185,13.171
		c-0.466,1.354,0.024,3.294,0.644,4.723C11.826,43.436,22.9,68.95,33.994,94.451c2.113,4.862,6.618,6.745,11.046,4.786
		c4.231-1.871,5.802-6.522,3.725-11.25c-0.56-1.28-26.143-60.24-32.804-75.69c-1.1-2.55-2.586-4.577-5.307-5.549
		C10.037,6.524,9.482,6.008,9,5.528C7.845,4.373,6.86,3.023,5.597,2.015C4.524,1.155,3.162,0.653,1.923,0z M15.524,21.301
		c6.282,14.489,12.479,28.798,18.49,42.675c-2.416,1.162-5.119,2.472-7.382,3.563C20.408,53.18,14.208,38.869,8.07,24.702
		C10.457,23.611,13.142,22.387,15.524,21.301z"/>
	<path fill-rule="evenodd" clip-rule="evenodd" fill="#FFFFFF" d="M34.014,63.976c-2.416,1.162-5.119,2.472-7.382,3.563
		C20.408,53.18,14.208,38.869,8.07,24.702c2.387-1.09,5.071-2.315,7.454-3.4C21.806,35.791,28.003,50.1,34.014,63.976z
		 M14.141,26.496c4.711,10.995,9.485,21.964,14.244,32.938c1.772,0.036,1.561-0.8,1.076-1.892
		c-1.508-3.412-2.973-6.844-4.457-10.268c-3.208-7.415-6.421-14.833-9.629-22.25c-0.283-0.086-0.562-0.17-0.848-0.254
		C14.386,25.35,13.954,26.056,14.141,26.496z"/>
	<path fill-rule="evenodd" clip-rule="evenodd" fill="#CD2813" d="M14.527,24.769c-0.142,0.581-0.574,1.287-0.387,1.727
		c4.711,10.995,9.485,21.964,14.244,32.938c1.772,0.036,1.561-0.8,1.076-1.892c-1.508-3.412-2.973-6.844-4.457-10.268
		c-3.208-7.415-6.421-14.833-9.629-22.25C15.092,24.937,14.813,24.853,14.527,24.769z"/>
</g>
<g>
</g>
<g>
</g>
<g>
</g>
<g>
</g>
<g>
</g>
<g>
</g>
</svg>
